<svg aria-hidden="true" style="position: absolute; width: 0; height: 0; overflow: hidden;" version="1.1" xmlns="http://www.w3.org/2000/svg" xmlns:xlink="http://www.w3.org/1999/xlink">
<defs>
<symbol id="icon-d_rotation" viewBox="0 0 24 24">
<title>d_rotation</title>
<path d="M12 0c6.281 0 11.438 4.828 11.953 10.969h-1.5c-0.328-3.75-2.672-6.891-5.953-8.438l-1.359 1.313-3.797-3.797zM16.547 11.813c0-1.638-0.641-2.672-2.203-2.672h-0.938v5.766h0.891c1.202 0 1.888-0.654 2.156-1.594 0.094-0.328 0.094-0.703 0.094-1.125v-0.375zM14.344 8.016c1.79 0 2.856 0.906 3.375 2.203 0.188 0.469 0.234 1.031 0.234 1.594v0.375c0 1.238-0.355 2.136-0.984 2.766s-1.432 1.031-2.672 1.031h-2.297v-7.969h2.344zM9.703 11.906c0.717 0.287 1.313 0.855 1.313 1.828 0 0.375-0.094 0.656-0.234 0.938s-0.281 0.563-0.516 0.75c-0.44 0.352-1.104 0.563-1.875 0.563-1.458 0-2.531-0.738-2.531-2.203h1.266c0 0.724 0.544 1.172 1.266 1.172 0.838 0 1.313-0.4 1.313-1.266 0-0.883-0.581-1.266-1.453-1.266h-0.75v-1.031h0.75c0.811 0 1.359-0.376 1.359-1.172 0-0.775-0.414-1.172-1.219-1.172-0.677 0-1.172 0.402-1.172 1.078h-1.313c0-0.698 0.354-1.151 0.703-1.5 0.465-0.372 0.98-0.609 1.781-0.609 1.202 0 1.893 0.458 2.297 1.266 0.141 0.281 0.188 0.563 0.188 0.938 0 0.853-0.578 1.391-1.172 1.688zM7.5 21.469l1.359-1.313 3.797 3.797-0.656 0.047c-6.281 0-11.438-4.875-11.953-11.016h1.5c0.375 3.75 2.672 6.938 5.953 8.484z"></path>
</symbol>
<symbol id="icon-ac_unit" viewBox="0 0 24 24">
<title>ac_unit</title>
<path d="M21.984 11.016v1.969h-4.172l3.234 3.234-1.406 1.453-4.641-4.688h-2.016v2.016l4.688 4.641-1.453 1.406-3.234-3.234v4.172h-1.969v-4.172l-3.234 3.234-1.453-1.406 4.688-4.641v-2.016h-2.016l-4.641 4.688-1.406-1.453 3.234-3.234h-4.172v-1.969h4.172l-3.234-3.234 1.406-1.453 4.641 4.688h2.016v-2.016l-4.688-4.641 1.453-1.406 3.234 3.234v-4.172h1.969v4.172l3.234-3.234 1.453 1.406-4.688 4.641v2.016h2.016l4.641-4.688 1.406 1.453-3.234 3.234h4.172z"></path>
</symbol>
<symbol id="icon-alarm" viewBox="0 0 24 24">
<title>alarm</title>
<path d="M12 20.016c3.891 0 6.984-3.141 6.984-7.031s-3.094-6.984-6.984-6.984-6.984 3.094-6.984 6.984 3.094 7.031 6.984 7.031zM12 3.984c4.969 0 9 4.031 9 9s-4.031 9-9 9-9-4.031-9-9 4.031-9 9-9zM12.516 8.016v5.25l3.984 2.344-0.75 1.219-4.734-2.813v-6h1.5zM7.875 3.375l-4.594 3.844-1.266-1.5 4.594-3.844zM21.984 5.719l-1.266 1.547-4.594-3.891 1.266-1.5z"></path>
</symbol>
<symbol id="icon-access_alarms" viewBox="0 0 24 24">
<title>access_alarms</title>
<path d="M12 20.016c3.891 0 6.984-3.141 6.984-7.031s-3.094-6.984-6.984-6.984-6.984 3.094-6.984 6.984 3.094 7.031 6.984 7.031zM12 3.984c5.016 0 9 3.984 9 9s-3.984 9-9 9-9-3.984-9-9 3.984-9 9-9zM12.516 8.016v5.297l3.984 2.391-0.797 1.219-4.688-2.906v-6h1.5zM7.922 3.422l-4.641 3.797-1.266-1.5 4.594-3.797zM21.984 5.719l-1.266 1.5-4.641-3.938 1.313-1.5z"></path>
</symbol>
<symbol id="icon-schedule" viewBox="0 0 24 24">
<title>schedule</title>
<path d="M12.516 6.984v5.25l4.5 2.672-0.75 1.266-5.25-3.188v-6h1.5zM12 20.016c4.406 0 8.016-3.609 8.016-8.016s-3.609-8.016-8.016-8.016-8.016 3.609-8.016 8.016 3.609 8.016 8.016 8.016zM12 2.016c5.531 0 9.984 4.453 9.984 9.984s-4.453 9.984-9.984 9.984-9.984-4.453-9.984-9.984 4.453-9.984 9.984-9.984z"></path>
</symbol>
<symbol id="icon-accessibility" viewBox="0 0 24 24">
<title>accessibility</title>
<path d="M21 9h-6v12.984h-2.016v-6h-1.969v6h-2.016v-12.984h-6v-2.016h18v2.016zM12 2.016c1.078 0 2.016 0.891 2.016 1.969s-0.938 2.016-2.016 2.016-2.016-0.938-2.016-2.016 0.938-1.969 2.016-1.969z"></path>
</symbol>
<symbol id="icon-accessible" viewBox="0 0 24 24">
<title>accessible</title>
<path d="M12.844 18h2.063c-0.469 2.297-2.484 3.984-4.922 3.984-2.766 0-4.969-2.203-4.969-4.969 0-2.438 1.688-4.453 3.984-4.922v2.063c-1.172 0.422-2.016 1.547-2.016 2.859 0 1.641 1.359 3 3 3 1.313 0 2.438-0.844 2.859-2.016zM9.984 9.094c0-1.406 1.564-2.649 3-1.828h0.047v0.047c0.234 0.094 0.422 0.234 0.609 0.422l1.313 1.453c0.984 1.078 2.484 1.828 4.031 1.828v1.969c-1.734 0-3.656-0.844-4.969-1.922v3.422h3c1.078 0 1.969 0.938 1.969 2.016v5.484h-1.969v-4.969h-5.016c-1.078 0-2.016-0.938-2.016-2.016v-5.906zM9.984 3.984c0-1.125 0.891-1.969 2.016-1.969s2.016 0.844 2.016 1.969-0.891 2.016-2.016 2.016-2.016-0.891-2.016-2.016z"></path>
</symbol>
<symbol id="icon-account_balance" viewBox="0 0 24 24">
<title>account_balance</title>
<path d="M11.484 0.984l9.516 5.016v2.016h-18.984v-2.016zM15.984 9.984h3v7.031h-3v-7.031zM2.016 21.984v-3h18.984v3h-18.984zM9.984 9.984h3v7.031h-3v-7.031zM3.984 9.984h3v7.031h-3v-7.031z"></path>
</symbol>
<symbol id="icon-add_alert" viewBox="0 0 24 24">
<title>add_alert</title>
<path d="M15.984 13.031v-2.016h-3v-3h-1.969v3h-3v2.016h3v3h1.969v-3h3zM18.891 16.828l2.109 2.109v1.078h-18v-1.078l2.109-2.109v-5.813c0-3.234 2.25-6 5.297-6.703v-0.703c0-0.891 0.703-1.594 1.594-1.594s1.594 0.703 1.594 1.594v0.703c3.047 0.703 5.297 3.469 5.297 6.703v5.813zM10.031 21h3.938c0 1.078-0.891 2.016-1.969 2.016s-1.969-0.938-1.969-2.016z"></path>
</symbol>
<symbol id="icon-add_circle" viewBox="0 0 24 24">
<title>add_circle</title>
<path d="M17.016 12.984v-1.969h-4.031v-4.031h-1.969v4.031h-4.031v1.969h4.031v4.031h1.969v-4.031h4.031zM12 2.016c5.531 0 9.984 4.453 9.984 9.984s-4.453 9.984-9.984 9.984-9.984-4.453-9.984-9.984 4.453-9.984 9.984-9.984z"></path>
</symbol>
<symbol id="icon-favorite" viewBox="0 0 24 24">
<title>favorite</title>
<path d="M12 21.328l-1.453-1.313c-5.156-4.688-8.531-7.734-8.531-11.531 0-3.094 2.391-5.484 5.484-5.484 1.734 0 3.422 0.844 4.5 2.109 1.078-1.266 2.766-2.109 4.5-2.109 3.094 0 5.484 2.391 5.484 5.484 0 3.797-3.375 6.891-8.531 11.578z"></path>
</symbol>
<symbol id="icon-favorite_border" viewBox="0 0 24 24">
<title>favorite_border</title>
<path d="M12.094 18.563c4.781-4.313 7.922-7.172 7.922-10.078 0-2.016-1.5-3.469-3.516-3.469-1.547 0-3.047 0.984-3.563 2.344h-1.875c-0.516-1.359-2.016-2.344-3.563-2.344-2.016 0-3.516 1.453-3.516 3.469 0 2.906 3.141 5.766 7.922 10.078l0.094 0.094zM16.5 3c3.094 0 5.484 2.391 5.484 5.484 0 3.797-3.375 6.844-8.531 11.531l-1.453 1.313-1.453-1.266c-5.156-4.688-8.531-7.781-8.531-11.578 0-3.094 2.391-5.484 5.484-5.484 1.734 0 3.422 0.844 4.5 2.109 1.078-1.266 2.766-2.109 4.5-2.109z"></path>
</symbol>
<symbol id="icon-heart" viewBox="0 0 18 18">
<title>heart</title>
<path d="M12.5 4c1.378 0 2.5 1.346 2.5 3 0 3.154-3.818 5.713-6 6.8-2.184-1.089-6-3.647-6-6.8 0-1.654 1.122-3 2.5-3 0.643 0 1.347 0.44 1.883 1.177l0.809 0.886c0.399 0.549 1.218 0.549 1.617 0l0.809-0.886c0.536-0.737 1.24-1.177 1.883-1.177zM12.5 2c-1.415 0-2.675 0.866-3.5 2-0.825-1.134-2.085-2-3.5-2-2.485 0-4.5 2.239-4.5 5 0 5.719 8 9 8 9s8-3.281 8-9c0-2.761-2.015-5-4.5-5v0z"></path>
</symbol>
<symbol id="icon-eye" viewBox="0 0 18 18">
<title>eye</title>
<path d="M9 2c-3.263 0-6.525 2.333-9 7 2.475 4.666 5.737 7 9 7s6.525-2.333 9-7c-2.475-4.666-5.737-7-9-7zM9 14c-2.373 0-4.779-1.808-6.703-5 1.924-3.192 4.331-5 6.703-5s4.779 1.808 6.703 5c-1.924 3.192-4.331 5-6.703 5z"></path>
<path d="M11 9c0 1.105-0.896 2-2 2s-2-0.896-2-2 0.896-2 2-2 2 0.896 2 2z"></path>
</symbol>
<symbol id="icon-home" viewBox="0 0 18 18">
<title>home</title>
<path d="M17.577 6.701l-7.817-5.518c-0.168-0.119-0.37-0.183-0.577-0.183h-0.365c-0.207 0-0.408 0.064-0.577 0.183l-7.817 5.518c-0.266 0.187-0.423 0.492-0.423 0.817v8.482c0 0.552 0.448 1 1 1h16c0.552 0 1-0.448 1-1v-8.482c0-0.325-0.158-0.63-0.423-0.817zM16 14.5c0 0.276-0.224 0.5-0.5 0.5h-7.5v-5.5c0-0.276-0.224-0.5-0.5-0.5h-3c-0.276 0-0.5 0.224-0.5 0.5v5.5h-1.5c-0.276 0-0.5-0.224-0.5-0.5v-6.205c0-0.163 0.079-0.315 0.211-0.409l6.789-4.791 6.788 4.791c0.133 0.094 0.212 0.246 0.212 0.409v6.205z"></path>
<path d="M13.5 9h-3c-0.276 0-0.5 0.224-0.5 0.5v1c0 0.276 0.224 0.5 0.5 0.5h3c0.276 0 0.5-0.224 0.5-0.5v-1c0-0.276-0.224-0.5-0.5-0.5z"></path>
</symbol>
<symbol id="icon-information" viewBox="0 0 32 32">
<title>information</title>
<path d="M16.5 29v0c-6.904 0-12.5-5.596-12.5-12.5s5.596-12.5 12.5-12.5c6.904 0 12.5 5.596 12.5 12.5s-5.596 12.5-12.5 12.5zM17 22v-7h-3v1h2v6h-2v1h5v-1h-2zM16.5 13c0.828 0 1.5-0.672 1.5-1.5s-0.672-1.5-1.5-1.5c-0.828 0-1.5 0.672-1.5 1.5s0.672 1.5 1.5 1.5v0z"></path>
</symbol>
<symbol id="icon-book" viewBox="0 0 32 32">
<title>book</title>
<path d="M17 9h-6v19h14v-19h-8zM26 29h-17.006c-1.651 0-2.994-1.343-2.994-2.999v-19.501c0-1.39 1.116-2.5 2.493-2.5h17.507v1h-0.505c-0.818 0-1.495 0.672-1.495 1.5 0 0.834 0.669 1.5 1.495 1.5h0.505v21zM10 28v-19h-1.507c-0.559 0-1.076-0.185-1.493-0.498v17.507c0 1.1 0.893 1.991 1.995 1.991h1.005zM8.493 5c-0.825 0-1.493 0.666-1.493 1.5 0 0.828 0.667 1.5 1.493 1.5h15.007c0 0-0.5-0.79-0.5-1.526s0.5-1.474 0.5-1.474h-15.007z"></path>
</symbol>
<symbol id="icon-clipboard-checked" viewBox="0 0 32 32">
<title>clipboard-checked</title>
<path d="M13 5v-1.002c0-1.1 0.898-1.998 2.005-1.998h0.99c1.111 0 2.005 0.895 2.005 1.998v1.002h2.004c0.551 0 0.996 0.447 0.996 0.999v1.002c0 0.556-0.446 0.999-0.996 0.999h-9.009c-0.551 0-0.996-0.447-0.996-0.999v-1.002c0-0.556 0.446-0.999 0.996-0.999h2.004zM22 6h1.003c1.107 0 1.997 0.897 1.997 2.004v20.993c0 1.114-0.894 2.004-1.997 2.004h-15.005c-1.107 0-1.997-0.897-1.997-2.004v-20.993c0-1.114 0.894-2.004 1.997-2.004h1.003c0 0.002 0 0.003 0 0.005v0.99c0 1.107 0.894 2.005 2.003 2.005h8.994c1.106 0 2.003-0.894 2.003-2.005v-0.99c0-0.002 0-0.003 0-0.005v0 0zM15.5 5c0.276 0 0.5-0.224 0.5-0.5s-0.224-0.5-0.5-0.5c-0.276 0-0.5 0.224-0.5 0.5s0.224 0.5 0.5 0.5v0zM14.254 23.685l7.778-7.778-0.707-0.707-7.071 7.071-3.743-3.743-0.707 0.707 4.45 4.45z"></path>
</symbol>
<symbol id="icon-clipboard-text" viewBox="0 0 32 32">
<title>clipboard-text</title>
<path d="M13 5v-1.002c0-1.1 0.898-1.998 2.005-1.998h0.99c1.111 0 2.005 0.895 2.005 1.998v1.002h2.004c0.551 0 0.996 0.447 0.996 0.999v1.002c0 0.556-0.446 0.999-0.996 0.999h-9.009c-0.551 0-0.996-0.447-0.996-0.999v-1.002c0-0.556 0.446-0.999 0.996-0.999h2.004zM12 4h-0.997c-1.104 0-2 0.891-2.003 2h-1.003c-1.103 0-1.997 0.89-1.997 2.004v20.993c0 1.107 0.891 2.004 1.997 2.004h15.005c1.103 0 1.997-0.89 1.997-2.004v-20.993c0-1.107-0.891-2.004-1.997-2.004h-1.003c-0.003-1.105-0.895-2-2.003-2h-0.997c-0.001-1.657-1.35-3-3.009-3h-0.982c-1.661 0-3.008 1.338-3.009 3v0 0zM22 7h1c0.545 0 1 0.449 1 1.003v20.994c0 0.564-0.448 1.003-1 1.003h-15c-0.545 0-1-0.449-1-1.003v-20.994c0-0.564 0.448-1.003 1-1.003h1c0.003 1.105 0.895 2 2.003 2h8.994c1.104 0 2-0.891 2.003-2v0 0zM15.5 5c0.276 0 0.5-0.224 0.5-0.5s-0.224-0.5-0.5-0.5c-0.276 0-0.5 0.224-0.5 0.5s0.224 0.5 0.5 0.5v0zM9 13v1h13v-1h-13zM9 16v1h13v-1h-13zM9 19v1h13v-1h-13zM9 22v1h13v-1h-13zM9 25v1h13v-1h-13z"></path>
</symbol>
<symbol id="icon-clipboard-text2" viewBox="0 0 32 32">
<title>clipboard-text2</title>
<path d="M13 5v-1.002c0-1.1 0.898-1.998 2.005-1.998h0.99c1.111 0 2.005 0.895 2.005 1.998v1.002h2.004c0.551 0 0.996 0.447 0.996 0.999v1.002c0 0.556-0.446 0.999-0.996 0.999h-9.009c-0.551 0-0.996-0.447-0.996-0.999v-1.002c0-0.556 0.446-0.999 0.996-0.999h2.004zM22 6h1.003c1.107 0 1.997 0.897 1.997 2.004v20.993c0 1.114-0.894 2.004-1.997 2.004h-15.005c-1.107 0-1.997-0.897-1.997-2.004v-20.993c0-1.114 0.894-2.004 1.997-2.004h1.003c0 0.002 0 0.003 0 0.005v0.99c0 1.107 0.894 2.005 2.003 2.005h8.994c1.106 0 2.003-0.894 2.003-2.005v-0.99c0-0.002 0-0.003 0-0.005v0 0zM15.5 5c0.276 0 0.5-0.224 0.5-0.5s-0.224-0.5-0.5-0.5c-0.276 0-0.5 0.224-0.5 0.5s0.224 0.5 0.5 0.5v0zM9 13v1h13v-1h-13zM9 16v1h13v-1h-13zM9 19v1h13v-1h-13zM9 22v1h13v-1h-13zM9 25v1h13v-1h-13z"></path>
</symbol>
<symbol id="icon-note" viewBox="0 0 32 32">
<title>note</title>
<path d="M6 11v15.001c0 0.56 0.451 0.999 1.007 0.999h13.993v-4.994c0-1.119 0.895-2.006 1.998-2.006h4.002v-9h-21zM6 10h21v-2.993c0-0.557-0.447-1.007-0.999-1.007h-19.003c-0.56 0-0.999 0.447-0.999 0.999v3.001zM21.5 28h-14.5c-1.105 0-2-0.902-2-2.001v-18.998c0-1.105 0.902-2.001 2.001-2.001h18.998c1.105 0 2.001 0.894 2.001 1.994v14.006l-6 7h-0.5zM22 26.5l4.7-5.5h-3.703c-0.546 0-0.997 0.452-0.997 1.009v4.491z"></path>
</symbol>
<symbol id="icon-note-add" viewBox="0 0 32 32">
<title>note-add</title>
<path d="M25 25h-3v-1h3v-3h1v3h3v1h-3v3h-1v-3zM20.6 27h-13.601c-0.552 0-0.999-0.439-0.999-0.999v-15.001h21v8.207c-0.477-0.135-0.98-0.207-1.5-0.207-3.038 0-5.5 2.462-5.5 5.5 0 0.9 0.216 1.75 0.6 2.5v0zM28 19.6v-12.599c0-1.099-0.896-2.001-2.001-2.001h-18.998c-1.099 0-2.001 0.896-2.001 2.001v18.998c0 1.099 0.896 2.001 2.001 2.001h14.256c1.009 1.221 2.535 2 4.243 2 3.038 0 5.5-2.462 5.5-5.5 0-2.137-1.219-3.99-3-4.9v0zM6 10v-3.001c0-0.552 0.439-0.999 0.999-0.999h19.003c0.552 0 0.999 0.439 0.999 0.999v3.001h-21zM25.5 29v0 0c-2.485 0-4.5-2.015-4.5-4.5s2.015-4.5 4.5-4.5c2.485 0 4.5 2.015 4.5 4.5s-2.015 4.5-4.5 4.5z"></path>
</symbol>
<symbol id="icon-note-add2" viewBox="0 0 32 32">
<title>note-add2</title>
<path d="M25 25h-3v-1h3v-3h1v3h3v1h-3v3h-1v-3zM20.022 28h-13.021c-1.105 0-2.001-0.902-2.001-2.001v-14.999h23v7.498c-0.77-0.321-1.614-0.498-2.5-0.498-3.59 0-6.5 2.91-6.5 6.5 0 1.289 0.375 2.49 1.022 3.5v0 0zM5 10v-2.999c0-1.105 0.902-2.001 2.001-2.001h18.998c1.105 0 2.001 0.902 2.001 2.001v2.999h-23zM25.5 30c3.038 0 5.5-2.462 5.5-5.5s-2.462-5.5-5.5-5.5c-3.038 0-5.5 2.462-5.5 5.5s2.462 5.5 5.5 5.5v0z"></path>
</symbol>
<symbol id="icon-notebook" viewBox="0 0 32 32">
<title>notebook</title>
<path d="M13 2h1v2h-1v-2z"></path>
<path d="M17 2h1v2h-1v-2z"></path>
<path d="M21 2h1v2h-1v-2z"></path>
<path d="M9 2h1v2h-1v-2z"></path>
<path d="M23.003 4c0 0-0.878 0-1.003 0v2h-1v-2h-3v2h-1v-2h-3v2h-1v-2h-3v2h-1v-2c-0.125 0-1.003 0-1.003 0-1.103 0-1.997 0.891-1.997 2.003v20.994c0 1.106 0.891 2.003 1.997 2.003h15.006c1.103 0 1.997-0.891 1.997-2.003v-20.994c0-1.106-0.891-2.003-1.997-2.003z"></path>
</symbol>
<symbol id="icon-document-recording" viewBox="0 0 32 32">
<title>document-recording</title>
<path d="M19.5 3h0.5l6 7v18.009c0 1.093-0.894 1.991-1.997 1.991h-15.005c-1.107 0-1.997-0.899-1.997-2.007v-22.985c0-1.109 0.897-2.007 2.003-2.007h10.497zM19 4h-10.004c-0.55 0-0.996 0.455-0.996 0.995v23.009c0 0.55 0.455 0.995 1 0.995h15c0.552 0 1-0.445 1-0.993v-17.007h-4.002c-1.103 0-1.998-0.887-1.998-2.006v-4.994zM20 4.5v4.491c0 0.557 0.451 1.009 0.997 1.009h3.703l-4.7-5.5zM13 20.495v-1.495h1v1.493c0 1.385 1.11 2.507 2.5 2.507 1.381 0 2.5-1.125 2.5-2.507v-1.493h1v1.495c0 1.768-1.304 3.227-3 3.47v2.035h2v1h-5v-1h2v-2.036c-1.693-0.243-3-1.704-3-3.47v0zM15 16.502v0c0-0.831 0.672-1.502 1.5-1.502 0.834 0 1.5 0.672 1.5 1.502v3.997c0 0.831-0.672 1.502-1.5 1.502-0.834 0-1.5-0.672-1.5-1.502v-3.997zM16.5 16c-0.276 0-0.5 0.215-0.5 0.498v4.005c0 0.275 0.232 0.498 0.5 0.498 0.276 0 0.5-0.215 0.5-0.498v-4.005c0-0.275-0.232-0.498-0.5-0.498v0z"></path>
</symbol>
</defs>
</svg>
